<?xml version="1.0" standalone="no"?><!DOCTYPE svg PUBLIC "-//W3C//DTD SVG 1.1//EN" "http://www.w3.org/Graphics/SVG/1.1/DTD/svg11.dtd"><svg class="icon" height="512" viewBox="0 0 1536 1024" version="1.1" xmlns="http://www.w3.org/2000/svg"><path d="M102.4 0h1331.2c61.44 0 102.4 40.96 102.4 102.4s-40.96 102.4-102.4 102.4h-1331.2c-61.44 0-102.4-40.96-102.4-102.4s40.96-102.4 102.4-102.4z m0 409.6h1331.2c61.44 0 102.4 40.96 102.4 102.4s-40.96 102.4-102.4 102.4h-1331.2c-61.44 0-102.4-40.96-102.4-102.4s40.96-102.4 102.4-102.4z m0 409.6h1331.2c61.44 0 102.4 40.96 102.4 102.4s-40.96 102.4-102.4 102.4h-1331.2c-61.44 0-102.4-40.96-102.4-102.4s40.96-102.4 102.4-102.4z" fill="" /></svg>